# xmcd CD database file
#
# Track frame offsets:
#	150
#	16630
#	32559
#	54483
#	68927
#	88061
#	103992
#	122811
#	141941
#	161304
#	180336
#	199907
#	224152
#
# Disc length: 3297 seconds
#
# Revision: 0
# Processed by: cddbd v1.5.1PL2 Copyright (c) Steve Scherf et al.
# Submitted via: CDex 1.51
#
DISCID=b80cdf0d
DTITLE=WARMACHINE - The Beginning Of The End
DYEAR=2006
DGENRE=Heavy Metal
TTITLE0=Betrayed
TTITLE1=Empty
TTITLE2=Beginning Of The End
TTITLE3=Safe Haven
TTITLE4=Fate
TTITLE5=Eternally
TTITLE6=Forgotten Demise
TTITLE7=Taunted Souls
TTITLE8=Eye For An Eye
TTITLE9=Dust To Dust
TTITLE10=Apocalypse
TTITLE11=What a Pretty Picture
TTITLE12=Alone
EXTD=YEAR: 2006
EXTT0=
EXTT1=
EXTT2=
EXTT3=
EXTT4=
EXTT5=
EXTT6=
EXTT7=
EXTT8=
EXTT9=
EXTT10=
EXTT11=
EXTT12=
PLAYORDER=
